<svg width="80" height="95" viewBox="0 0 80 95" fill="none" xmlns="http://www.w3.org/2000/svg">
<path d="M3 4C3 3.44771 3.44772 3 4 3H76C76.5523 3 77 3.44772 77 4V54.8C77 75.2346 60.4345 91.8 40 91.8V91.8C19.5655 91.8 3 75.2345 3 54.8V4Z" fill="#6F00DD" stroke="#6F00DD" stroke-width="5.92"/>
<path d="M65.6657 50.9794L60.9301 48.2845C61.4081 45.743 61.4081 43.1358 60.9301 40.5943L65.6657 37.8994C66.2104 37.5927 66.4549 36.9573 66.2771 36.3658C65.0431 32.4659 62.9421 28.9385 60.1964 26.0026C59.774 25.5535 59.0847 25.4439 58.5511 25.7506L53.8155 28.4455C51.8257 26.7585 49.5357 25.4549 47.0567 24.6004V19.2216C47.0567 18.6082 46.6232 18.0714 46.0118 17.9399C41.9321 17.0416 37.7523 17.0854 33.8726 17.9399C33.2612 18.0714 32.8277 18.6082 32.8277 19.2216V24.6113C30.3598 25.4768 28.0698 26.7804 26.0689 28.4565L21.3444 25.7616C20.7997 25.4549 20.1216 25.5535 19.6992 26.0136C16.9534 28.9385 14.8524 32.4659 13.6185 36.3767C13.4295 36.9683 13.6852 37.6037 14.2299 37.9104L18.9655 40.6053C18.4875 43.1467 18.4875 45.754 18.9655 48.2955L14.2299 50.9903C13.6852 51.2971 13.4406 51.9324 13.6185 52.524C14.8524 56.4239 16.9534 59.9513 19.6992 62.8872C20.1216 63.3363 20.8108 63.4459 21.3444 63.1391L26.08 60.4443C28.0698 62.1313 30.3598 63.4349 32.8388 64.2894V69.6791C32.8388 70.2926 33.2723 70.8293 33.8837 70.9608C37.9635 71.8591 42.1433 71.8153 46.0229 70.9608C46.6343 70.8293 47.0679 70.2926 47.0679 69.6791V64.2894C49.5357 63.424 51.8257 62.1203 53.8266 60.4443L58.5623 63.1391C59.107 63.4459 59.7851 63.3473 60.2075 62.8872C62.9533 59.9623 65.0543 56.4348 66.2882 52.524C66.4549 51.9215 66.2104 51.2861 65.6657 50.9794ZM39.9422 53.2032C35.0399 53.2032 31.0491 49.2704 31.0491 44.4394C31.0491 39.6084 35.0399 35.6756 39.9422 35.6756C44.8446 35.6756 48.8354 39.6084 48.8354 44.4394C48.8354 49.2704 44.8446 53.2032 39.9422 53.2032Z" fill="white"/>
</svg>
