<svg width="41" height="48" viewBox="0 0 41 48" fill="none" xmlns="http://www.w3.org/2000/svg">
<path d="M2 2.49415C2 2.22124 2.22124 2 2.49415 2H38.0731C38.346 2 38.5672 2.22124 38.5672 2.49415V27.5971C38.5672 37.6949 30.3814 45.8807 20.2836 45.8807C10.1859 45.8807 2 37.6948 2 27.5971V2.49415Z" fill="white" stroke="white" stroke-width="2.92538"/>
<path d="M32.9664 25.7091L30.6263 24.3774C30.8625 23.1215 30.8625 21.8332 30.6263 20.5773L32.9664 19.2456C33.2355 19.0941 33.3564 18.7801 33.2685 18.4878C32.6587 16.5606 31.6205 14.8175 30.2637 13.3668C30.055 13.1448 29.7144 13.0907 29.4507 13.2423L27.1106 14.5739C26.1273 13.7403 24.9957 13.0961 23.7707 12.6739V10.0159C23.7707 9.7128 23.5565 9.44755 23.2544 9.38259C21.2384 8.9387 19.1729 8.96035 17.2558 9.38259C16.9536 9.44755 16.7394 9.7128 16.7394 10.0159V12.6793C15.5199 13.1069 14.3883 13.7511 13.3995 14.5794L11.0649 13.2477C10.7957 13.0961 10.4607 13.1448 10.2519 13.3722C8.8951 14.8175 7.85688 16.5606 7.24713 18.4932C7.15375 18.7855 7.28009 19.0995 7.54926 19.251L9.88937 20.5827C9.65316 21.8386 9.65316 23.127 9.88937 24.3828L7.54926 25.7145C7.28009 25.8661 7.15924 26.1801 7.24713 26.4724C7.85688 28.3995 8.8951 30.1426 10.2519 31.5934C10.4607 31.8153 10.8012 31.8694 11.0649 31.7179L13.405 30.3862C14.3883 31.2198 15.5199 31.864 16.7449 32.2863V34.9496C16.7449 35.2528 16.9591 35.518 17.2613 35.583C19.2773 36.0269 21.3427 36.0052 23.2599 35.583C23.562 35.518 23.7762 35.2528 23.7762 34.9496V32.2863C24.9957 31.8586 26.1273 31.2144 27.1161 30.3862L29.4562 31.7179C29.7254 31.8694 30.0605 31.8207 30.2692 31.5934C31.626 30.148 32.6642 28.4049 33.274 26.4724C33.3564 26.1747 33.2355 25.8607 32.9664 25.7091ZM20.2551 26.808C17.8326 26.808 15.8605 24.8646 15.8605 22.4774C15.8605 20.0901 17.8326 18.1467 20.2551 18.1467C22.6776 18.1467 24.6496 20.0901 24.6496 22.4774C24.6496 24.8646 22.6776 26.808 20.2551 26.808Z" fill="#6F00DD"/>
</svg>
